<?xml version="1.0" encoding="UTF-8"?>
<svg version="1.1" xmlns="http://www.w3.org/2000/svg" width="500" height="500">
<path d="M0 0 C165 0 330 0 500 0 C500 165 500 330 500 500 C335 500 170 500 0 500 C0 335 0 170 0 0 Z " fill="#000000" transform="translate(0,0)"/>
<path d="M0 0 C1.21623047 0.39251953 1.21623047 0.39251953 2.45703125 0.79296875 C25.11991905 8.79826742 43.36922436 27.12799424 53.81738281 48.38452148 C61.58443986 64.74119962 65.60439037 80.5006876 65.4375 98.75 C65.43479095 99.4486618 65.43208191 100.14732361 65.42929077 100.86715698 C65.36390205 112.01553676 64.33681805 122.33150449 61 133 C60.63252129 134.30554216 60.26663504 135.6115336 59.90234375 136.91796875 C56.16549327 149.69751313 49.64339794 160.90708812 41 171 C40.28457031 171.87140625 39.56914062 172.7428125 38.83203125 173.640625 C23.85748536 191.13128545 4.10309223 200.13503031 -18 205 C-19.5159375 205.36931641 -19.5159375 205.36931641 -21.0625 205.74609375 C-41.81825223 210.12048921 -69.84215669 207.89848888 -88.625 197.625 C-91.69435984 195.68789819 -91.69435984 195.68789819 -93.890625 196.53515625 C-96.7955766 198.55248375 -98.90415316 201.09764822 -101.125 203.8125 C-101.60509521 204.39 -102.08519043 204.9675 -102.57983398 205.5625 C-107.11197122 211.05257131 -111.45477899 216.68345328 -115.75292969 222.35742188 C-117.88456552 225.1651051 -120.03694817 227.95679716 -122.1875 230.75 C-122.94417969 231.73484375 -123.70085937 232.7196875 -124.48046875 233.734375 C-127.64191151 237.83199693 -130.82258443 241.91475141 -134 246 C-98.69 246.33 -63.38 246.66 -27 247 C-27 258.88 -27 270.76 -27 283 C-38.20825215 283.17621059 -49.41644274 283.34582066 -60.625 283.5 C-61.91929932 283.51781588 -61.91929932 283.51781588 -63.23974609 283.53599167 C-96.49339446 283.98860326 -129.7435456 284.08740654 -163 284.0625 C-164.72682384 284.06121597 -164.72682384 284.06121597 -166.48853302 284.05990601 C-180.65903796 284.04858033 -194.82951972 284.0286009 -209 284 C-209.59277344 282.13037109 -209.59277344 282.13037109 -210 280 C-208.515625 277.9140625 -208.515625 277.9140625 -206.25 275.625 C-202.480071 271.65113357 -199.02535969 267.59162761 -195.6875 263.25 C-191.92083897 258.37931763 -188.03804623 253.64805451 -184 249 C-178.5711173 242.73913142 -173.42862529 236.29118981 -168.35449219 229.74121094 C-167.00813408 228.01045643 -165.65083893 226.28895475 -164.2890625 224.5703125 C-158.91415432 217.7829845 -153.66539169 210.91483586 -148.48950195 203.97460938 C-145.13066815 199.48090926 -141.71825977 195.03474829 -138.25 190.625 C-137.57662598 189.76358398 -137.57662598 189.76358398 -136.88964844 188.88476562 C-134.81219088 186.24017285 -132.70444739 183.6591909 -130.5 181.1171875 C-129.7575 180.25351563 -129.015 179.38984375 -128.25 178.5 C-127.59515625 177.7678125 -126.9403125 177.035625 -126.265625 176.28125 C-124.74903958 174.00297395 -124.74903958 174.00297395 -125.078125 171.0390625 C-126.0852808 167.71886244 -127.3987751 165.6220932 -129.5 162.875 C-131.94409254 159.65961597 -132.99750964 158.00996143 -134 154 C-164.36 154 -194.72 154 -226 154 C-226 141.79 -226 129.58 -226 117 C-199.93 117 -173.86 117 -147 117 C-147.33 115.02 -147.66 113.04 -148 111 C-148.20877826 107.10549598 -148.18509431 103.21211846 -148.1875 99.3125 C-148.19974609 98.28705078 -148.21199219 97.26160156 -148.22460938 96.20507812 C-148.2377897 89.25026187 -147.50889746 82.78517951 -146 76 C-145.83363037 75.24452881 -145.66726074 74.48905762 -145.49584961 73.71069336 C-139.21440982 46.77327319 -124.14251267 24.27397583 -101.0703125 8.90234375 C-95.0457099 5.1695429 -89.44898382 2.21083159 -82.75 -0.0625 C-81.63020752 -0.44764771 -81.63020752 -0.44764771 -80.48779297 -0.84057617 C-54.11014433 -9.80874887 -26.29516567 -9.29119769 0 0 Z " fill="#FCFCFC" transform="translate(326,74)"/>
<path d="M0 0 C11.34884659 9.74857757 18.8496115 23.8530086 20.1875 38.75 C21.23356349 60.1064641 18.78898348 79.10329623 4.375 95.8125 C-8.54155532 108.90572553 -24.95288818 113.88974526 -43 114.0625 C-43.99064453 114.09150391 -44.98128906 114.12050781 -46.00195312 114.15039062 C-53.07928301 114.21072196 -58.45575531 112.84912102 -64.8125 109.75 C-61.02228251 103.6526936 -56.38981297 98.26643857 -51.8125 92.75 C-45.0134664 84.51387048 -38.41410246 76.15203949 -31.8125 67.75 C-54.9125 67.42 -78.0125 67.09 -101.8125 66.75 C-105.48832164 48.37089181 -102.95248166 27.25595258 -92.5625 11.5625 C-82.21369623 -2.36256425 -68.83763851 -10.93925596 -51.65625 -13.9296875 C-32.69668193 -16.06524324 -15.29722275 -11.8007147 0 0 Z " fill="#020202" transform="translate(325.8125,124.25)"/>
</svg>
